<svg width="25" height="25" viewBox="0 0 25 25" fill="none" xmlns="http://www.w3.org/2000/svg">
<g clip-path="url(#clip0_1437_727)">
<rect width="25" height="25" fill="black"/>
<path d="M8.7505 0C3.941 0 0 3.92975 0 8.7255C0 10.5838 0.5935 12.3102 1.59825 13.73L7.6825 24.2485C8.53475 25.3618 9.101 25.1505 9.8095 24.19L12.3663 19.8388C11.3328 19.3284 10.4318 18.5851 9.73425 17.6675C8.78057 16.4184 8.24674 14.8996 8.20925 13.3285C5.88 13.0652 4.1 11.125 4.1 8.7255C4.1 6.143 6.16075 4.0885 8.7505 4.0885C10.4345 4.0885 11.89 4.96025 12.705 6.27775C14.0496 5.69422 15.536 5.51886 16.9795 5.7735C15.7582 2.41725 12.5225 0 8.7505 0Z" fill="#22BBF2"/>
<path d="M16.5323 6.87374C14.9268 6.65624 13.2385 7.04924 11.8523 8.10499C9.07976 10.216 8.54051 14.1965 10.6518 16.969C12.628 19.564 16.2368 20.1897 18.9643 18.5282L19.485 19.2122C19.4343 19.3302 19.4105 19.447 19.415 19.5546C19.4196 19.6623 19.4525 19.7582 19.5115 19.8357L23.2915 24.7995C23.3996 24.9413 23.5881 25.0128 23.8155 24.998C24.043 24.9833 24.2908 24.8837 24.5045 24.721C24.6104 24.6404 24.7046 24.5468 24.7819 24.4455C24.8592 24.3441 24.9181 24.2371 24.9551 24.1304C24.9921 24.0237 25.0065 23.9195 24.9976 23.8237C24.9887 23.728 24.9565 23.6425 24.903 23.5722L21.123 18.6085C21.0639 18.531 20.9802 18.4738 20.8777 18.4408C20.7751 18.4078 20.6561 18.3997 20.529 18.4172L20.008 17.733C22.3355 15.5455 22.6923 11.9005 20.7163 9.30549C19.6605 7.91899 18.1378 7.09124 16.5323 6.87374ZM16.3448 8.25799C16.9854 8.34452 17.6026 8.55684 18.161 8.88274C18.7193 9.20864 19.2076 9.64169 19.598 10.157C19.9907 10.6704 20.2782 11.2564 20.4439 11.8813C20.6095 12.5061 20.6502 13.1575 20.5634 13.7981C20.4766 14.4387 20.2642 15.0558 19.9383 15.6141C19.6124 16.1724 19.1794 16.6608 18.6643 17.0512C18.1508 17.4439 17.5649 17.7314 16.94 17.897C16.3152 18.0627 15.6638 18.1033 15.0233 18.0165C14.3827 17.9297 13.7656 17.7173 13.2074 17.3914C12.6491 17.0656 12.1607 16.6326 11.7703 16.1175C11.3775 15.6041 11.0901 15.0181 10.9244 14.3933C10.7588 13.7685 10.7181 13.1171 10.8049 12.4766C10.8916 11.836 11.104 11.2189 11.4299 10.6606C11.7557 10.1024 12.1886 9.614 12.7038 9.22349C13.217 8.83032 13.8029 8.5426 14.4278 8.37689C15.0527 8.21119 15.7042 8.17078 16.3448 8.25799Z" fill="#F24822"/>
</g>
<defs>
<clipPath id="clip0_1437_727">
<rect width="25" height="25" fill="white"/>
</clipPath>
</defs>
</svg>
